/* XPM */
static char *noname[] = {
/* width height ncolors chars_per_pixel */
"65 40 32 2",
/* colors */
"`` c #000000",
"`a c #A20E0B",
"`b c #F48C86",
"`c c #BE1712",
"`d c #7D2321",
"`e c #E7615E",
"`f c #EB7C72",
"`g c #FACAB5",
"`h c #EB6D6B",
"`i c #EF9389",
"`j c #D6413F",
"`k c #171D14",
"`l c #AD2B27",
"`m c #010805",
"`n c #E3524E",
"`o c #0A100C",
"`p c #F1AC99",
"`q c #773E35",
"`r c #CD2E2A",
"`s c #935B4D",
"`t c #F6BAA7",
"`u c #F59A8F",
"`v c #2A0503",
"`w c #FAB1A1",
"`x c #FAA297",
"`y c #2D2B20",
"`z c #15160F",
"a` c #E08A7A",
"aa c #7D0F0F",
"ab c #880706",
"ac c #660202",
"ad c #CE5A54",
/* pixels */
"`z`k`k`y`q`q`y`y`y`y`s`y`k`k`y`d`r`n`e`b`b`n`r`r`jac`z`o`````````````````o`o`o`o`k`y`qa``s`s`b`n`j`r`c`c`c`c`d`q`y`k`y`s`p`t`pa``q",
"```o`o`m`z`y`y`z`k`k`q`y`k`y`y`r`r`e`f`b`b`f`j`r`c`r`v```````o```m`````````m`o`q`k`y`p`g`t`w`e`j`j`c`c`c`j`r`cad`s`sa``s`q`p`g`p`s",
"`z`y`y`y`o```o`z`o`z`y`y`y`l`j`r`r`f`b`i`x`b`h`n`r`r`r`n```````````````````z`g`t`g`g`t`w`u`t`w`w`w`b`f`j`r`r`a`s`s`p`t`s`sa`a``q`y",
"`m`o`k`k`y`k`m```z`z`d`c`r`n`e`e`e`i`w`u`f`b`i`b`e`j`j`j`jac```````y`g`g`t`g`g`g`t`g`t`t`p`p`i`u`b`b`n`h`r`c`c`s`y`y`q`z`y`z`m`y`q",
"`m`````o`z`y`y`k`o`oab`c`n`b`i`w`u`u`t`w`x`b`i`x`b`f`e`n`e`j`n`g`w`g`g`w`t`g`t`w`t`i`x`w`t`g`g`i`f`n`n`n`c`r`r`q`o`o`y`y`y`m`````o",
"`m`o`o`m```o`z`y`y`yab`l`j`e`b`i`w`t`w`w`w`u`u`u`x`h`b`b`xad`x`w`b`w`g`g`g`t`u`u`u`b`f`i`u`w`g`x`f`e`e`e`j`j`n`s`z`````k`y`k`m````",
"`````z`y`y`y`k`o`z`zaa`lad`e`f`i`w`t`g`t`t`w`x`x`u`b`b`f`x`f`u`f`u`i`t`g`g`g`g`g`t`b`f`h`b`j`w`b`t`i`x`h`h`f`r`q```````z`y`y`o````",
"`````m`m`z`y`y`q`y`yac`ladad`h`i`u`t`g`g`w`p`w`u`x`x`f`f`b`f`b`f`f`i`u`p`p`w`t`g`g`g`h`e`h`n`n`n`n`i`w`x`b`e`e`r`c`````y`y`o`o````",
"`````````````````o`z`k`d`lad`e`b`b`p`w`t`g`w`x`x`u`u`f`f`n`h`c`e`f`b`f`b`n`x`t`x`w`t`t`f`n`n`e`e`b`i`i`i`i`i`h`x`t`f`y`q`y`y`y`z`o",
"```````````m`m`````m`z`d`ladadad`f`i`x`w`g`t`w`x`x`w`f`f`r`j`n`n`n`n`n`f`f`b`i`x`p`w`g`g`g`g`e`n`e`f`f`u`i`i`u`p`p`t`b`y`y`q`s`y`y",
"`````````m`m`m`k`y`y`y`y`d`l`s`e`f`f`i`u`p`t`w`x`f`b`x`l`e`h`ead`j`h`j`r`n`n`g`h`h`f`u`b`u`t`f`n`n`n`h`f`i`u`u`w`t`g`xa``q`q`s`q`q",
"```````m`m```m`m`o`y`y`y`v`d`lad`f`f`i`u`w`w`u`b`f`b`f`h`f`bad`r`l`c`c`r`r`e`t`e`j`e`e`p`h`f`t`p`nad`b`e`ha``u`p`t`t`p`s`y`k`y`k`o",
"```````````m`m`o`o`m`z`y`q`d`q`sad`f`b`u`w`u`i`f`f`fad`f`b`b`j`n`c`r`l`n`r`b`h`n`e`r`j`h`b`b`n`e`i`h`nad`b`f`u`u`w`g`p```````y`k``",
"`z`````````m`m`o`o`z`k`q`y`q`d`ladad`f`f`u`x`b`f`h`n`f`u`u`b`j`aabab`hac`n`w`j`e`e`n`r`e`f`e`p`n`j`b`j`n`e`f`f`u`u`t`w```````o`o``",
"`y`v`````````m`m`o`o`o`y`y`y`q`l`lad`h`f`f`b`b`b`fad`b`i`x`n`b`cab`l`a`j`n`w`j`e`e`u`t`r`n`j`n`w`j`n`w`n`e`f`b`x`x`w`f`y`k`o`````m",
"`y`q`k`````````m`m`o`k`k`z`y`q`q`l`sad`h`f`f`f`f`f`fa``i`i`h`b`bab`r`r`n`e`g`n`j`n`naa`r`j`j`n`b`h`w`b`e`e`f`i`u`w`b`h```o```````y",
"`o`z`y`z```````m`m`m`m`o`z`zacaa`d`ladad`e`h`j`l`f`f`f`u`g`lad`x`w`a`j`j`n`x`r`j`j`jab`j`e`r`j`f`e`f`w`e`e`f`u`u`w`g`e```o`k`z`y`s",
"`m`o`y`q`q`z`````m`m`zaaaaacac`d`d`d`ladad`l`l`l`sadadad`iabaa`f`w`f`j`j`n`b`r`r`r`laa`f`f`r`j`x`x`h`u`t`n`h`f`u`u`t`t```y`y`k`s`p",
"`z`k`k`k`o``````````aa`daa`d`d`d`d`d`d`l`d`ladad`l`l`l`l`b`facaba``w`x`n`n`f`a`a`b`c`u`b`a`e`b`x`j`e`b`w`t`f`e`f`iad`w`z```````k`y",
"`z`z`z`z`m`m```m`y`s`n`bad`e`f`f`f`x`g`eadadadad`s`d`d`d`f`h`n`a`a`r`u`w`n`n`f`b`e`j`u`x`x`w`t`g`n`e`f`x`t`bad`p`t`t`w`i`````q`s`y",
"`m`m`o`o`o`o`o`z`o`z`ead`n`h`h`f`la``u`xadad`s`s`s`laaaa`x`w`b`e`n`a`r`j`w`h`x`j`r`l`l`j`jad`e`n`n`e`f`p`g`t`x`f`w`w`t`t`````y`y`y",
"```m`m`o`z`o`z`o`o`zaa`j`e`h`f`b`i`s`f`b`w`w`w`wad`qacac`p`uac`l`i`e`n`r`n`e`w`n`r`l`rac`j`n`e`f`e`e`f`w`g`w`u`u`p`w`g`wa``````z`o",
"`o`o`o`z`z`z`z`z`z`k`lad`n`e`ha``s`l`s`b`i`w`p`w`x`laaac`w`baaabaa`h`x`x`e`e`e`g`t`aac`r`j`n`e`i`e`f`u`t`t`ua``u`x`p`t`t`p```y`z``",
"`z`o`o`o`z`k`k`z`zab`r`r`j`l`d`d`d`d`d`e`i`u`b`x`w`w`lac`w`u`lacaaaa`la``w`t`w`h`t`g`g`j`n`e`b`w`f`i`x`t`h`i`i`x`w`p`wa``j`s`v````",
"`k`o`o`z`k`k`y`zacab`r`rabaaaaaaaaaaaa`dac`l`u`x`w`w`xaa`p`x`racacaaaa`a`lad`x`t`g`t`g`t`h`j`j`u`x`w`p`x`i`f`u`u`w`t`x`u`j`r`c````",
"`o`z`o`o`o`z`z`kab`c`j`j`j`d`daaaaaaaaaaaaad`e`h`f`p`t`xa``x`h`vacacabaa`a`l`l`lad`i`t`g`t`w`t`p`t`f`u`x`b`f`x`p`t`w`p`f`j`c`z`o``",
"`o`o`o`z`z`z`zac`a`c`j`h`n`a`daaaaaaaaaaab`a`j`j`e`b`p`p`j`w`u`v`vacacacababaa`dab`laaaa`a`d`l`l`l`lad`i`x`w`t`t`u`u`i`faa````````",
"`m`m`o`o`o`z`kab`a`c`j`e`h`naaaaaa`r`aababab`a`r`e`f`p`u`x`n`h`v`v`v`vacacacacacacacaa`a`l`l`dad`x`u`i`x`u`f`f`bad`f`n`y`y````````",
"`m`m`o`o`z`zab`a`l`c`r`j`n`nabaa`c`r`aab`aabab`a`r`r`b`u`u`b`lacacacacab`a`l`l`l`l`l`l`l`nad`x`p`p`x`i`f`u`f`h`j`j`la``pa``y``````",
"```m`o`o`oac`a`a`a`c`r`j`j`naaacab`c`aabababababab`c`e`f`b`b`facacac`l`l`l`l`l`l`l`l`jad`w`x`u`u`u`p`u`f`f`h`r`r`j`j`ta``q`z``````",
"`m`m`o`o`v`a`a`a`a`r`r`r`j`aacacacacabababab`a`aabab`l`j`h`n`h`f`nab`j`j`j`l`lad`l`l`h`f`ba``f`f`f`f`l`b`f`f`n`j`j`r`s`s`s`s`o````",
"`m`m`y`s`v`a`a`a`c`c`c`cacacacacacacacacaaaaabab`a`aab`a`r`n`e`e`j`r`r`n`r`l`j`jadadadadad`l`q`d`d`d`e`n`e`e`n`j`r`lad`sa``s`k````",
"`q`q`y`y`aab`a`a`a`a`aabacacacacacacacacacaaaaaaaaabababab`c`c`c`c`c`c`c`r`c`r`cababaa`d`d`d`d`d`d`d`jad`j`n`j`j`j`r`l`pa`a``s`y`o",
"`y`y`kacab`a`aabababacacacacacacacacacacacacaaaaaaaaabababab`a`a`a`a`a`a`c`c`c`c`cabaaaaaa`d`d`d`d`d`l`l`j`j`r`j`r`r`c`ua`a`a`a``s",
"`z`z`k`z`o`k`y`o```v`v`v`vac`vacacacacacacacacaaaaaaaaaaabababab`a`a`a`a`a`c`a`c`c`cabaa`d`d`d`d`d`l`j`l`r`r`r`r`r`l`l`p`ta``sa``s",
"`m`o`y`y`k`k`o```````````qa``s```````vacacacacac`d`daaaaaaababababababab`a`a`a`a`aabaa`d`d`d`d`l`n`j`r`l`l`l`r`r`r`c`c`s`pa``sa`a`",
"`m`o`z`o`o`z`o```````````o`````````````````````yac`d`d`daaaaaaababababababababaa`r`f`e`hadad`b`e`j`r`r`c`a`a`a`a`c`c`c`a`o`v`sa``q",
"`m`m`z`k`k`k`y`k`z```q`y`y`````````````````````````v`d`daaaaaaaaaaaaaaaaabab`e`n`h`f`f`b`b`b`f`j`j`r`r`caaacaa`a`a`a`c`a`o`o`o`y`q",
"`m`o`z`z`z`k`y`y`z```m```````````````````````````````vac`d`d`d`daaab`r`e`n`j`e`f`f`f`b`b`f`h`n`r`l`c`c`c`a`y`yacabab`a`a`v`o`o`o`z",
"`m`o`o`o`o`o`o`z`o```````````````m```m`m````````````````ac`daa`c`r`j`n`j`j`n`n`n`h`n`e`h`n`j`r`r`c`a`a`a`a`v`k`v`z`zacabaa`o`o`o`z"
};
